ISO-10303-21;
HEADER;
FILE_DESCRIPTION(('FreeCAD Model'),'2;1');
FILE_NAME('Open CASCADE Shape Model','2026-05-08T14:04:36',('FreeCAD'),(
    'FreeCAD'),'Open CASCADE STEP processor 7.8','FreeCAD','Unknown');
FILE_SCHEMA(('AUTOMOTIVE_DESIGN { 1 0 10303 214 1 1 1 1 }'));
ENDSEC;
DATA;
#1 = APPLICATION_PROTOCOL_DEFINITION('international standard',
  'automotive_design',2000,#2);
#2 = APPLICATION_CONTEXT(
  'core data for automotive mechanical design processes');
#3 = SHAPE_DEFINITION_REPRESENTATION(#4,#10);
#4 = PRODUCT_DEFINITION_SHAPE('','',#5);
#5 = PRODUCT_DEFINITION('design','',#6,#9);
#6 = PRODUCT_DEFINITION_FORMATION('','',#7);
#7 = PRODUCT('Open CASCADE STEP translator 7.8 5',
  'Open CASCADE STEP translator 7.8 5','',(#8));
#8 = PRODUCT_CONTEXT('',#2,'mechanical');
#9 = PRODUCT_DEFINITION_CONTEXT('part definition',#2,'design');
#10 = ADVANCED_BREP_SHAPE_REPRESENTATION('',(#11,#15),#675);
#11 = AXIS2_PLACEMENT_3D('',#12,#13,#14);
#12 = CARTESIAN_POINT('',(0.,0.,0.));
#13 = DIRECTION('',(0.,0.,1.));
#14 = DIRECTION('',(1.,0.,-0.));
#15 = MANIFOLD_SOLID_BREP('',#16);
#16 = CLOSED_SHELL('',(#17,#122,#142,#151,#182,#229,#276,#286,#296,#313,
    #338,#387,#436,#453,#470,#490,#534,#558,#595,#612,#629,#641,#666));
#17 = ADVANCED_FACE('',(#18,#45),#117,.T.);
#18 = FACE_BOUND('',#19,.T.);
#19 = EDGE_LOOP('',(#20,#29,#37,#44));
#20 = ORIENTED_EDGE('',*,*,#21,.F.);
#21 = EDGE_CURVE('',#22,#22,#24,.T.);
#22 = VERTEX_POINT('',#23);
#23 = CARTESIAN_POINT('',(14.,-3.429011037613E-15,22.5));
#24 = CIRCLE('',#25,14.);
#25 = AXIS2_PLACEMENT_3D('',#26,#27,#28);
#26 = CARTESIAN_POINT('',(0.,0.,22.5));
#27 = DIRECTION('',(0.,0.,1.));
#28 = DIRECTION('',(1.,0.,-0.));
#29 = ORIENTED_EDGE('',*,*,#30,.F.);
#30 = EDGE_CURVE('',#31,#22,#33,.T.);
#31 = VERTEX_POINT('',#32);
#32 = CARTESIAN_POINT('',(14.,-3.429011037613E-15,0.));
#33 = LINE('',#34,#35);
#34 = CARTESIAN_POINT('',(14.,-3.429011037613E-15,0.));
#35 = VECTOR('',#36,1.);
#36 = DIRECTION('',(0.,0.,1.));
#37 = ORIENTED_EDGE('',*,*,#38,.T.);
#38 = EDGE_CURVE('',#31,#31,#39,.T.);
#39 = CIRCLE('',#40,14.);
#40 = AXIS2_PLACEMENT_3D('',#41,#42,#43);
#41 = CARTESIAN_POINT('',(0.,0.,0.));
#42 = DIRECTION('',(0.,0.,1.));
#43 = DIRECTION('',(1.,0.,-0.));
#44 = ORIENTED_EDGE('',*,*,#30,.T.);
#45 = FACE_BOUND('',#46,.T.);
#46 = EDGE_LOOP('',(#47,#57,#66,#75,#84,#92,#101,#110));
#47 = ORIENTED_EDGE('',*,*,#48,.F.);
#48 = EDGE_CURVE('',#49,#51,#53,.T.);
#49 = VERTEX_POINT('',#50);
#50 = CARTESIAN_POINT('',(-12.64911064067,-6.,14.8));
#51 = VERTEX_POINT('',#52);
#52 = CARTESIAN_POINT('',(-12.64911064067,-6.,19.8));
#53 = LINE('',#54,#55);
#54 = CARTESIAN_POINT('',(-12.64911064067,-6.,0.));
#55 = VECTOR('',#56,1.);
#56 = DIRECTION('',(0.,0.,1.));
#57 = ORIENTED_EDGE('',*,*,#58,.F.);
#58 = EDGE_CURVE('',#59,#49,#61,.T.);
#59 = VERTEX_POINT('',#60);
#60 = CARTESIAN_POINT('',(-12.75,-5.78251675311,14.8));
#61 = CIRCLE('',#62,14.);
#62 = AXIS2_PLACEMENT_3D('',#63,#64,#65);
#63 = CARTESIAN_POINT('',(0.,0.,14.8));
#64 = DIRECTION('',(0.,0.,1.));
#65 = DIRECTION('',(1.,0.,-0.));
#66 = ORIENTED_EDGE('',*,*,#67,.F.);
#67 = EDGE_CURVE('',#68,#59,#70,.T.);
#68 = VERTEX_POINT('',#69);
#69 = CARTESIAN_POINT('',(-12.75,5.78251675311,14.8));
#70 = CIRCLE('',#71,14.);
#71 = AXIS2_PLACEMENT_3D('',#72,#73,#74);
#72 = CARTESIAN_POINT('',(0.,0.,14.8));
#73 = DIRECTION('',(0.,0.,1.));
#74 = DIRECTION('',(1.,0.,-0.));
#75 = ORIENTED_EDGE('',*,*,#76,.F.);
#76 = EDGE_CURVE('',#77,#68,#79,.T.);
#77 = VERTEX_POINT('',#78);
#78 = CARTESIAN_POINT('',(-12.64911064067,6.,14.8));
#79 = CIRCLE('',#80,14.);
#80 = AXIS2_PLACEMENT_3D('',#81,#82,#83);
#81 = CARTESIAN_POINT('',(0.,0.,14.8));
#82 = DIRECTION('',(0.,0.,1.));
#83 = DIRECTION('',(1.,0.,-0.));
#84 = ORIENTED_EDGE('',*,*,#85,.T.);
#85 = EDGE_CURVE('',#77,#86,#88,.T.);
#86 = VERTEX_POINT('',#87);
#87 = CARTESIAN_POINT('',(-12.64911064067,6.,19.8));
#88 = LINE('',#89,#90);
#89 = CARTESIAN_POINT('',(-12.64911064067,6.,0.));
#90 = VECTOR('',#91,1.);
#91 = DIRECTION('',(0.,0.,1.));
#92 = ORIENTED_EDGE('',*,*,#93,.T.);
#93 = EDGE_CURVE('',#86,#94,#96,.T.);
#94 = VERTEX_POINT('',#95);
#95 = CARTESIAN_POINT('',(-12.75,5.78251675311,19.8));
#96 = CIRCLE('',#97,14.);
#97 = AXIS2_PLACEMENT_3D('',#98,#99,#100);
#98 = CARTESIAN_POINT('',(0.,0.,19.8));
#99 = DIRECTION('',(0.,0.,1.));
#100 = DIRECTION('',(1.,0.,-0.));
#101 = ORIENTED_EDGE('',*,*,#102,.T.);
#102 = EDGE_CURVE('',#94,#103,#105,.T.);
#103 = VERTEX_POINT('',#104);
#104 = CARTESIAN_POINT('',(-12.75,-5.78251675311,19.8));
#105 = CIRCLE('',#106,14.);
#106 = AXIS2_PLACEMENT_3D('',#107,#108,#109);
#107 = CARTESIAN_POINT('',(0.,0.,19.8));
#108 = DIRECTION('',(0.,0.,1.));
#109 = DIRECTION('',(1.,0.,-0.));
#110 = ORIENTED_EDGE('',*,*,#111,.T.);
#111 = EDGE_CURVE('',#103,#51,#112,.T.);
#112 = CIRCLE('',#113,14.);
#113 = AXIS2_PLACEMENT_3D('',#114,#115,#116);
#114 = CARTESIAN_POINT('',(0.,0.,19.8));
#115 = DIRECTION('',(0.,0.,1.));
#116 = DIRECTION('',(1.,0.,-0.));
#117 = CYLINDRICAL_SURFACE('',#118,14.);
#118 = AXIS2_PLACEMENT_3D('',#119,#120,#121);
#119 = CARTESIAN_POINT('',(0.,0.,0.));
#120 = DIRECTION('',(0.,0.,1.));
#121 = DIRECTION('',(1.,0.,-0.));
#122 = ADVANCED_FACE('',(#123,#126),#137,.T.);
#123 = FACE_BOUND('',#124,.T.);
#124 = EDGE_LOOP('',(#125));
#125 = ORIENTED_EDGE('',*,*,#21,.T.);
#126 = FACE_BOUND('',#127,.T.);
#127 = EDGE_LOOP('',(#128));
#128 = ORIENTED_EDGE('',*,*,#129,.F.);
#129 = EDGE_CURVE('',#130,#130,#132,.T.);
#130 = VERTEX_POINT('',#131);
#131 = CARTESIAN_POINT('',(9.,-2.204364238465E-15,22.5));
#132 = CIRCLE('',#133,9.);
#133 = AXIS2_PLACEMENT_3D('',#134,#135,#136);
#134 = CARTESIAN_POINT('',(0.,0.,22.5));
#135 = DIRECTION('',(0.,0.,1.));
#136 = DIRECTION('',(1.,0.,-0.));
#137 = PLANE('',#138);
#138 = AXIS2_PLACEMENT_3D('',#139,#140,#141);
#139 = CARTESIAN_POINT('',(0.,0.,22.5));
#140 = DIRECTION('',(0.,0.,1.));
#141 = DIRECTION('',(1.,0.,-0.));
#142 = ADVANCED_FACE('',(#143),#146,.F.);
#143 = FACE_BOUND('',#144,.T.);
#144 = EDGE_LOOP('',(#145));
#145 = ORIENTED_EDGE('',*,*,#38,.F.);
#146 = PLANE('',#147);
#147 = AXIS2_PLACEMENT_3D('',#148,#149,#150);
#148 = CARTESIAN_POINT('',(0.,0.,0.));
#149 = DIRECTION('',(0.,0.,1.));
#150 = DIRECTION('',(1.,0.,-0.));
#151 = ADVANCED_FACE('',(#152),#177,.T.);
#152 = FACE_BOUND('',#153,.T.);
#153 = EDGE_LOOP('',(#154,#162,#163,#171));
#154 = ORIENTED_EDGE('',*,*,#155,.F.);
#155 = EDGE_CURVE('',#49,#156,#158,.T.);
#156 = VERTEX_POINT('',#157);
#157 = CARTESIAN_POINT('',(-0.207695154587,-6.,14.8));
#158 = LINE('',#159,#160);
#159 = CARTESIAN_POINT('',(-14.6,-6.,14.8));
#160 = VECTOR('',#161,1.);
#161 = DIRECTION('',(1.,0.,-0.));
#162 = ORIENTED_EDGE('',*,*,#48,.T.);
#163 = ORIENTED_EDGE('',*,*,#164,.T.);
#164 = EDGE_CURVE('',#51,#165,#167,.T.);
#165 = VERTEX_POINT('',#166);
#166 = CARTESIAN_POINT('',(-0.207695154587,-6.,19.8));
#167 = LINE('',#168,#169);
#168 = CARTESIAN_POINT('',(-14.6,-6.,19.8));
#169 = VECTOR('',#170,1.);
#170 = DIRECTION('',(1.,0.,-0.));
#171 = ORIENTED_EDGE('',*,*,#172,.F.);
#172 = EDGE_CURVE('',#156,#165,#173,.T.);
#173 = LINE('',#174,#175);
#174 = CARTESIAN_POINT('',(-0.207695154587,-6.,14.55));
#175 = VECTOR('',#176,1.);
#176 = DIRECTION('',(0.,0.,1.));
#177 = PLANE('',#178);
#178 = AXIS2_PLACEMENT_3D('',#179,#180,#181);
#179 = CARTESIAN_POINT('',(-14.6,-6.,14.8));
#180 = DIRECTION('',(-0.,1.,0.));
#181 = DIRECTION('',(0.,0.,1.));
#182 = ADVANCED_FACE('',(#183),#224,.T.);
#183 = FACE_BOUND('',#184,.T.);
#184 = EDGE_LOOP('',(#185,#193,#194,#200,#201,#202,#210,#218));
#185 = ORIENTED_EDGE('',*,*,#186,.F.);
#186 = EDGE_CURVE('',#77,#187,#189,.T.);
#187 = VERTEX_POINT('',#188);
#188 = CARTESIAN_POINT('',(-0.207695154587,6.,14.8));
#189 = LINE('',#190,#191);
#190 = CARTESIAN_POINT('',(-14.6,6.,14.8));
#191 = VECTOR('',#192,1.);
#192 = DIRECTION('',(1.,0.,-0.));
#193 = ORIENTED_EDGE('',*,*,#76,.T.);
#194 = ORIENTED_EDGE('',*,*,#195,.F.);
#195 = EDGE_CURVE('',#59,#68,#196,.T.);
#196 = LINE('',#197,#198);
#197 = CARTESIAN_POINT('',(-12.75,-7.,14.8));
#198 = VECTOR('',#199,1.);
#199 = DIRECTION('',(-0.,1.,0.));
#200 = ORIENTED_EDGE('',*,*,#58,.T.);
#201 = ORIENTED_EDGE('',*,*,#155,.T.);
#202 = ORIENTED_EDGE('',*,*,#203,.F.);
#203 = EDGE_CURVE('',#204,#156,#206,.T.);
#204 = VERTEX_POINT('',#205);
#205 = CARTESIAN_POINT('',(-5.3,-3.059956426705,14.8));
#206 = LINE('',#207,#208);
#207 = CARTESIAN_POINT('',(-8.150961894323,-1.413952809568,14.8));
#208 = VECTOR('',#209,1.);
#209 = DIRECTION('',(0.866025403784,-0.5,0.));
#210 = ORIENTED_EDGE('',*,*,#211,.F.);
#211 = EDGE_CURVE('',#212,#204,#214,.T.);
#212 = VERTEX_POINT('',#213);
#213 = CARTESIAN_POINT('',(-5.3,3.059956426705,14.8));
#214 = LINE('',#215,#216);
#215 = CARTESIAN_POINT('',(-5.3,-1.470021786647,14.8));
#216 = VECTOR('',#217,1.);
#217 = DIRECTION('',(1.451292593497E-16,-1.,0.));
#218 = ORIENTED_EDGE('',*,*,#219,.F.);
#219 = EDGE_CURVE('',#187,#212,#220,.T.);
#220 = LINE('',#221,#222);
#221 = CARTESIAN_POINT('',(-8.099038105677,1.443931022921,14.8));
#222 = VECTOR('',#223,1.);
#223 = DIRECTION('',(-0.866025403784,-0.5,0.));
#224 = PLANE('',#225);
#225 = AXIS2_PLACEMENT_3D('',#226,#227,#228);
#226 = CARTESIAN_POINT('',(-14.6,-6.,14.8));
#227 = DIRECTION('',(0.,0.,1.));
#228 = DIRECTION('',(1.,0.,-0.));
#229 = ADVANCED_FACE('',(#230),#271,.F.);
#230 = FACE_BOUND('',#231,.F.);
#231 = EDGE_LOOP('',(#232,#240,#241,#247,#248,#249,#257,#265));
#232 = ORIENTED_EDGE('',*,*,#233,.F.);
#233 = EDGE_CURVE('',#86,#234,#236,.T.);
#234 = VERTEX_POINT('',#235);
#235 = CARTESIAN_POINT('',(-0.207695154587,6.,19.8));
#236 = LINE('',#237,#238);
#237 = CARTESIAN_POINT('',(-14.6,6.,19.8));
#238 = VECTOR('',#239,1.);
#239 = DIRECTION('',(1.,0.,-0.));
#240 = ORIENTED_EDGE('',*,*,#93,.T.);
#241 = ORIENTED_EDGE('',*,*,#242,.F.);
#242 = EDGE_CURVE('',#103,#94,#243,.T.);
#243 = LINE('',#244,#245);
#244 = CARTESIAN_POINT('',(-12.75,-7.,19.8));
#245 = VECTOR('',#246,1.);
#246 = DIRECTION('',(-0.,1.,0.));
#247 = ORIENTED_EDGE('',*,*,#111,.T.);
#248 = ORIENTED_EDGE('',*,*,#164,.T.);
#249 = ORIENTED_EDGE('',*,*,#250,.F.);
#250 = EDGE_CURVE('',#251,#165,#253,.T.);
#251 = VERTEX_POINT('',#252);
#252 = CARTESIAN_POINT('',(-5.3,-3.059956426705,19.8));
#253 = LINE('',#254,#255);
#254 = CARTESIAN_POINT('',(-8.150961894323,-1.413952809568,19.8));
#255 = VECTOR('',#256,1.);
#256 = DIRECTION('',(0.866025403784,-0.5,0.));
#257 = ORIENTED_EDGE('',*,*,#258,.F.);
#258 = EDGE_CURVE('',#259,#251,#261,.T.);
#259 = VERTEX_POINT('',#260);
#260 = CARTESIAN_POINT('',(-5.3,3.059956426705,19.8));
#261 = LINE('',#262,#263);
#262 = CARTESIAN_POINT('',(-5.3,-1.470021786647,19.8));
#263 = VECTOR('',#264,1.);
#264 = DIRECTION('',(1.451292593497E-16,-1.,0.));
#265 = ORIENTED_EDGE('',*,*,#266,.F.);
#266 = EDGE_CURVE('',#234,#259,#267,.T.);
#267 = LINE('',#268,#269);
#268 = CARTESIAN_POINT('',(-8.099038105677,1.443931022921,19.8));
#269 = VECTOR('',#270,1.);
#270 = DIRECTION('',(-0.866025403784,-0.5,0.));
#271 = PLANE('',#272);
#272 = AXIS2_PLACEMENT_3D('',#273,#274,#275);
#273 = CARTESIAN_POINT('',(-14.6,-6.,19.8));
#274 = DIRECTION('',(0.,0.,1.));
#275 = DIRECTION('',(1.,0.,-0.));
#276 = ADVANCED_FACE('',(#277),#281,.T.);
#277 = FACE_BOUND('',#278,.T.);
#278 = EDGE_LOOP('',(#279,#280));
#279 = ORIENTED_EDGE('',*,*,#195,.T.);
#280 = ORIENTED_EDGE('',*,*,#67,.T.);
#281 = PLANE('',#282);
#282 = AXIS2_PLACEMENT_3D('',#283,#284,#285);
#283 = CARTESIAN_POINT('',(-14.6,-6.,14.8));
#284 = DIRECTION('',(0.,0.,1.));
#285 = DIRECTION('',(1.,0.,-0.));
#286 = ADVANCED_FACE('',(#287),#291,.F.);
#287 = FACE_BOUND('',#288,.F.);
#288 = EDGE_LOOP('',(#289,#290));
#289 = ORIENTED_EDGE('',*,*,#242,.T.);
#290 = ORIENTED_EDGE('',*,*,#102,.T.);
#291 = PLANE('',#292);
#292 = AXIS2_PLACEMENT_3D('',#293,#294,#295);
#293 = CARTESIAN_POINT('',(-14.6,-6.,19.8));
#294 = DIRECTION('',(0.,0.,1.));
#295 = DIRECTION('',(1.,0.,-0.));
#296 = ADVANCED_FACE('',(#297),#308,.F.);
#297 = FACE_BOUND('',#298,.F.);
#298 = EDGE_LOOP('',(#299,#300,#301,#302));
#299 = ORIENTED_EDGE('',*,*,#186,.F.);
#300 = ORIENTED_EDGE('',*,*,#85,.T.);
#301 = ORIENTED_EDGE('',*,*,#233,.T.);
#302 = ORIENTED_EDGE('',*,*,#303,.F.);
#303 = EDGE_CURVE('',#187,#234,#304,.T.);
#304 = LINE('',#305,#306);
#305 = CARTESIAN_POINT('',(-0.207695154587,6.,14.55));
#306 = VECTOR('',#307,1.);
#307 = DIRECTION('',(-0.,-0.,1.));
#308 = PLANE('',#309);
#309 = AXIS2_PLACEMENT_3D('',#310,#311,#312);
#310 = CARTESIAN_POINT('',(-14.6,6.,14.8));
#311 = DIRECTION('',(-0.,1.,0.));
#312 = DIRECTION('',(0.,0.,1.));
#313 = ADVANCED_FACE('',(#314),#333,.T.);
#314 = FACE_BOUND('',#315,.T.);
#315 = EDGE_LOOP('',(#316,#325,#331,#332));
#316 = ORIENTED_EDGE('',*,*,#317,.F.);
#317 = EDGE_CURVE('',#318,#318,#320,.T.);
#318 = VERTEX_POINT('',#319);
#319 = CARTESIAN_POINT('',(9.,-2.204364238465E-15,24.));
#320 = CIRCLE('',#321,9.);
#321 = AXIS2_PLACEMENT_3D('',#322,#323,#324);
#322 = CARTESIAN_POINT('',(0.,0.,24.));
#323 = DIRECTION('',(0.,0.,1.));
#324 = DIRECTION('',(1.,0.,-0.));
#325 = ORIENTED_EDGE('',*,*,#326,.F.);
#326 = EDGE_CURVE('',#130,#318,#327,.T.);
#327 = LINE('',#328,#329);
#328 = CARTESIAN_POINT('',(9.,-2.204364238465E-15,22.3));
#329 = VECTOR('',#330,1.);
#330 = DIRECTION('',(0.,0.,1.));
#331 = ORIENTED_EDGE('',*,*,#129,.T.);
#332 = ORIENTED_EDGE('',*,*,#326,.T.);
#333 = CYLINDRICAL_SURFACE('',#334,9.);
#334 = AXIS2_PLACEMENT_3D('',#335,#336,#337);
#335 = CARTESIAN_POINT('',(0.,0.,22.3));
#336 = DIRECTION('',(0.,0.,1.));
#337 = DIRECTION('',(1.,0.,-0.));
#338 = ADVANCED_FACE('',(#339),#382,.T.);
#339 = FACE_BOUND('',#340,.T.);
#340 = EDGE_LOOP('',(#341,#351,#357,#358,#359,#360,#368,#376));
#341 = ORIENTED_EDGE('',*,*,#342,.F.);
#342 = EDGE_CURVE('',#343,#345,#347,.T.);
#343 = VERTEX_POINT('',#344);
#344 = CARTESIAN_POINT('',(-5.3,-3.059956426705,14.3));
#345 = VERTEX_POINT('',#346);
#346 = CARTESIAN_POINT('',(-1.124209753048E-15,-6.11991285341,14.3));
#347 = LINE('',#348,#349);
#348 = CARTESIAN_POINT('',(-5.3,-3.059956426705,14.3));
#349 = VECTOR('',#350,1.);
#350 = DIRECTION('',(0.866025403784,-0.5,0.));
#351 = ORIENTED_EDGE('',*,*,#352,.T.);
#352 = EDGE_CURVE('',#343,#204,#353,.T.);
#353 = LINE('',#354,#355);
#354 = CARTESIAN_POINT('',(-5.3,-3.059956426705,14.3));
#355 = VECTOR('',#356,1.);
#356 = DIRECTION('',(0.,0.,1.));
#357 = ORIENTED_EDGE('',*,*,#203,.T.);
#358 = ORIENTED_EDGE('',*,*,#172,.T.);
#359 = ORIENTED_EDGE('',*,*,#250,.F.);
#360 = ORIENTED_EDGE('',*,*,#361,.T.);
#361 = EDGE_CURVE('',#251,#362,#364,.T.);
#362 = VERTEX_POINT('',#363);
#363 = CARTESIAN_POINT('',(-5.3,-3.059956426705,20.3));
#364 = LINE('',#365,#366);
#365 = CARTESIAN_POINT('',(-5.3,-3.059956426705,14.3));
#366 = VECTOR('',#367,1.);
#367 = DIRECTION('',(0.,0.,1.));
#368 = ORIENTED_EDGE('',*,*,#369,.T.);
#369 = EDGE_CURVE('',#362,#370,#372,.T.);
#370 = VERTEX_POINT('',#371);
#371 = CARTESIAN_POINT('',(-1.124209753048E-15,-6.11991285341,20.3));
#372 = LINE('',#373,#374);
#373 = CARTESIAN_POINT('',(-5.3,-3.059956426705,20.3));
#374 = VECTOR('',#375,1.);
#375 = DIRECTION('',(0.866025403784,-0.5,0.));
#376 = ORIENTED_EDGE('',*,*,#377,.F.);
#377 = EDGE_CURVE('',#345,#370,#378,.T.);
#378 = LINE('',#379,#380);
#379 = CARTESIAN_POINT('',(-1.124209753048E-15,-6.11991285341,14.3));
#380 = VECTOR('',#381,1.);
#381 = DIRECTION('',(0.,0.,1.));
#382 = PLANE('',#383);
#383 = AXIS2_PLACEMENT_3D('',#384,#385,#386);
#384 = CARTESIAN_POINT('',(-5.3,-3.059956426705,14.3));
#385 = DIRECTION('',(0.5,0.866025403784,-0.));
#386 = DIRECTION('',(0.866025403784,-0.5,0.));
#387 = ADVANCED_FACE('',(#388),#431,.T.);
#388 = FACE_BOUND('',#389,.T.);
#389 = EDGE_LOOP('',(#390,#400,#408,#416,#422,#423,#424,#425));
#390 = ORIENTED_EDGE('',*,*,#391,.F.);
#391 = EDGE_CURVE('',#392,#394,#396,.T.);
#392 = VERTEX_POINT('',#393);
#393 = CARTESIAN_POINT('',(3.747365843495E-16,6.11991285341,14.3));
#394 = VERTEX_POINT('',#395);
#395 = CARTESIAN_POINT('',(-5.3,3.059956426705,14.3));
#396 = LINE('',#397,#398);
#397 = CARTESIAN_POINT('',(3.747365843495E-16,6.11991285341,14.3));
#398 = VECTOR('',#399,1.);
#399 = DIRECTION('',(-0.866025403784,-0.5,0.));
#400 = ORIENTED_EDGE('',*,*,#401,.T.);
#401 = EDGE_CURVE('',#392,#402,#404,.T.);
#402 = VERTEX_POINT('',#403);
#403 = CARTESIAN_POINT('',(3.747365843495E-16,6.11991285341,20.3));
#404 = LINE('',#405,#406);
#405 = CARTESIAN_POINT('',(3.747365843495E-16,6.11991285341,14.3));
#406 = VECTOR('',#407,1.);
#407 = DIRECTION('',(0.,0.,1.));
#408 = ORIENTED_EDGE('',*,*,#409,.T.);
#409 = EDGE_CURVE('',#402,#410,#412,.T.);
#410 = VERTEX_POINT('',#411);
#411 = CARTESIAN_POINT('',(-5.3,3.059956426705,20.3));
#412 = LINE('',#413,#414);
#413 = CARTESIAN_POINT('',(3.747365843495E-16,6.11991285341,20.3));
#414 = VECTOR('',#415,1.);
#415 = DIRECTION('',(-0.866025403784,-0.5,0.));
#416 = ORIENTED_EDGE('',*,*,#417,.F.);
#417 = EDGE_CURVE('',#259,#410,#418,.T.);
#418 = LINE('',#419,#420);
#419 = CARTESIAN_POINT('',(-5.3,3.059956426705,14.3));
#420 = VECTOR('',#421,1.);
#421 = DIRECTION('',(0.,0.,1.));
#422 = ORIENTED_EDGE('',*,*,#266,.F.);
#423 = ORIENTED_EDGE('',*,*,#303,.F.);
#424 = ORIENTED_EDGE('',*,*,#219,.T.);
#425 = ORIENTED_EDGE('',*,*,#426,.F.);
#426 = EDGE_CURVE('',#394,#212,#427,.T.);
#427 = LINE('',#428,#429);
#428 = CARTESIAN_POINT('',(-5.3,3.059956426705,14.3));
#429 = VECTOR('',#430,1.);
#430 = DIRECTION('',(0.,0.,1.));
#431 = PLANE('',#432);
#432 = AXIS2_PLACEMENT_3D('',#433,#434,#435);
#433 = CARTESIAN_POINT('',(3.747365843495E-16,6.11991285341,14.3));
#434 = DIRECTION('',(0.5,-0.866025403784,0.));
#435 = DIRECTION('',(-0.866025403784,-0.5,0.));
#436 = ADVANCED_FACE('',(#437),#448,.T.);
#437 = FACE_BOUND('',#438,.T.);
#438 = EDGE_LOOP('',(#439,#445,#446,#447));
#439 = ORIENTED_EDGE('',*,*,#440,.F.);
#440 = EDGE_CURVE('',#394,#343,#441,.T.);
#441 = LINE('',#442,#443);
#442 = CARTESIAN_POINT('',(-5.3,3.059956426705,14.3));
#443 = VECTOR('',#444,1.);
#444 = DIRECTION('',(1.451292593497E-16,-1.,0.));
#445 = ORIENTED_EDGE('',*,*,#426,.T.);
#446 = ORIENTED_EDGE('',*,*,#211,.T.);
#447 = ORIENTED_EDGE('',*,*,#352,.F.);
#448 = PLANE('',#449);
#449 = AXIS2_PLACEMENT_3D('',#450,#451,#452);
#450 = CARTESIAN_POINT('',(-5.3,3.059956426705,14.3));
#451 = DIRECTION('',(1.,1.451292593497E-16,-0.));
#452 = DIRECTION('',(1.451292593497E-16,-1.,0.));
#453 = ADVANCED_FACE('',(#454),#465,.T.);
#454 = FACE_BOUND('',#455,.T.);
#455 = EDGE_LOOP('',(#456,#457,#458,#464));
#456 = ORIENTED_EDGE('',*,*,#258,.F.);
#457 = ORIENTED_EDGE('',*,*,#417,.T.);
#458 = ORIENTED_EDGE('',*,*,#459,.T.);
#459 = EDGE_CURVE('',#410,#362,#460,.T.);
#460 = LINE('',#461,#462);
#461 = CARTESIAN_POINT('',(-5.3,3.059956426705,20.3));
#462 = VECTOR('',#463,1.);
#463 = DIRECTION('',(1.451292593497E-16,-1.,0.));
#464 = ORIENTED_EDGE('',*,*,#361,.F.);
#465 = PLANE('',#466);
#466 = AXIS2_PLACEMENT_3D('',#467,#468,#469);
#467 = CARTESIAN_POINT('',(-5.3,3.059956426705,14.3));
#468 = DIRECTION('',(1.,1.451292593497E-16,-0.));
#469 = DIRECTION('',(1.451292593497E-16,-1.,0.));
#470 = ADVANCED_FACE('',(#471,#474),#485,.T.);
#471 = FACE_BOUND('',#472,.T.);
#472 = EDGE_LOOP('',(#473));
#473 = ORIENTED_EDGE('',*,*,#317,.T.);
#474 = FACE_BOUND('',#475,.T.);
#475 = EDGE_LOOP('',(#476));
#476 = ORIENTED_EDGE('',*,*,#477,.F.);
#477 = EDGE_CURVE('',#478,#478,#480,.T.);
#478 = VERTEX_POINT('',#479);
#479 = CARTESIAN_POINT('',(3.3,-8.082668874373E-16,24.));
#480 = CIRCLE('',#481,3.3);
#481 = AXIS2_PLACEMENT_3D('',#482,#483,#484);
#482 = CARTESIAN_POINT('',(0.,0.,24.));
#483 = DIRECTION('',(0.,0.,1.));
#484 = DIRECTION('',(1.,0.,-0.));
#485 = PLANE('',#486);
#486 = AXIS2_PLACEMENT_3D('',#487,#488,#489);
#487 = CARTESIAN_POINT('',(0.,0.,24.));
#488 = DIRECTION('',(0.,0.,1.));
#489 = DIRECTION('',(1.,0.,-0.));
#490 = ADVANCED_FACE('',(#491,#518),#529,.T.);
#491 = FACE_BOUND('',#492,.T.);
#492 = EDGE_LOOP('',(#493,#501,#502,#503,#504,#512));
#493 = ORIENTED_EDGE('',*,*,#494,.T.);
#494 = EDGE_CURVE('',#495,#392,#497,.T.);
#495 = VERTEX_POINT('',#496);
#496 = CARTESIAN_POINT('',(5.3,3.059956426705,14.3));
#497 = LINE('',#498,#499);
#498 = CARTESIAN_POINT('',(5.3,3.059956426705,14.3));
#499 = VECTOR('',#500,1.);
#500 = DIRECTION('',(-0.866025403784,0.5,0.));
#501 = ORIENTED_EDGE('',*,*,#391,.T.);
#502 = ORIENTED_EDGE('',*,*,#440,.T.);
#503 = ORIENTED_EDGE('',*,*,#342,.T.);
#504 = ORIENTED_EDGE('',*,*,#505,.T.);
#505 = EDGE_CURVE('',#345,#506,#508,.T.);
#506 = VERTEX_POINT('',#507);
#507 = CARTESIAN_POINT('',(5.3,-3.059956426705,14.3));
#508 = LINE('',#509,#510);
#509 = CARTESIAN_POINT('',(-1.124209753048E-15,-6.11991285341,14.3));
#510 = VECTOR('',#511,1.);
#511 = DIRECTION('',(0.866025403784,0.5,0.));
#512 = ORIENTED_EDGE('',*,*,#513,.T.);
#513 = EDGE_CURVE('',#506,#495,#514,.T.);
#514 = LINE('',#515,#516);
#515 = CARTESIAN_POINT('',(5.3,-3.059956426705,14.3));
#516 = VECTOR('',#517,1.);
#517 = DIRECTION('',(2.902585186994E-16,1.,0.));
#518 = FACE_BOUND('',#519,.T.);
#519 = EDGE_LOOP('',(#520));
#520 = ORIENTED_EDGE('',*,*,#521,.F.);
#521 = EDGE_CURVE('',#522,#522,#524,.T.);
#522 = VERTEX_POINT('',#523);
#523 = CARTESIAN_POINT('',(3.3,-8.082668874373E-16,14.3));
#524 = CIRCLE('',#525,3.3);
#525 = AXIS2_PLACEMENT_3D('',#526,#527,#528);
#526 = CARTESIAN_POINT('',(0.,0.,14.3));
#527 = DIRECTION('',(0.,0.,1.));
#528 = DIRECTION('',(1.,0.,-0.));
#529 = PLANE('',#530);
#530 = AXIS2_PLACEMENT_3D('',#531,#532,#533);
#531 = CARTESIAN_POINT('',(3.870113582659E-16,0.,14.3));
#532 = DIRECTION('',(0.,0.,1.));
#533 = DIRECTION('',(1.,0.,-0.));
#534 = ADVANCED_FACE('',(#535),#553,.T.);
#535 = FACE_BOUND('',#536,.T.);
#536 = EDGE_LOOP('',(#537,#538,#546,#552));
#537 = ORIENTED_EDGE('',*,*,#377,.T.);
#538 = ORIENTED_EDGE('',*,*,#539,.T.);
#539 = EDGE_CURVE('',#370,#540,#542,.T.);
#540 = VERTEX_POINT('',#541);
#541 = CARTESIAN_POINT('',(5.3,-3.059956426705,20.3));
#542 = LINE('',#543,#544);
#543 = CARTESIAN_POINT('',(-1.124209753048E-15,-6.11991285341,20.3));
#544 = VECTOR('',#545,1.);
#545 = DIRECTION('',(0.866025403784,0.5,0.));
#546 = ORIENTED_EDGE('',*,*,#547,.F.);
#547 = EDGE_CURVE('',#506,#540,#548,.T.);
#548 = LINE('',#549,#550);
#549 = CARTESIAN_POINT('',(5.3,-3.059956426705,14.3));
#550 = VECTOR('',#551,1.);
#551 = DIRECTION('',(0.,0.,1.));
#552 = ORIENTED_EDGE('',*,*,#505,.F.);
#553 = PLANE('',#554);
#554 = AXIS2_PLACEMENT_3D('',#555,#556,#557);
#555 = CARTESIAN_POINT('',(-1.124209753048E-15,-6.11991285341,14.3));
#556 = DIRECTION('',(-0.5,0.866025403784,0.));
#557 = DIRECTION('',(0.866025403784,0.5,0.));
#558 = ADVANCED_FACE('',(#559,#579),#590,.F.);
#559 = FACE_BOUND('',#560,.F.);
#560 = EDGE_LOOP('',(#561,#569,#570,#571,#572,#573));
#561 = ORIENTED_EDGE('',*,*,#562,.T.);
#562 = EDGE_CURVE('',#563,#402,#565,.T.);
#563 = VERTEX_POINT('',#564);
#564 = CARTESIAN_POINT('',(5.3,3.059956426705,20.3));
#565 = LINE('',#566,#567);
#566 = CARTESIAN_POINT('',(5.3,3.059956426705,20.3));
#567 = VECTOR('',#568,1.);
#568 = DIRECTION('',(-0.866025403784,0.5,0.));
#569 = ORIENTED_EDGE('',*,*,#409,.T.);
#570 = ORIENTED_EDGE('',*,*,#459,.T.);
#571 = ORIENTED_EDGE('',*,*,#369,.T.);
#572 = ORIENTED_EDGE('',*,*,#539,.T.);
#573 = ORIENTED_EDGE('',*,*,#574,.T.);
#574 = EDGE_CURVE('',#540,#563,#575,.T.);
#575 = LINE('',#576,#577);
#576 = CARTESIAN_POINT('',(5.3,-3.059956426705,20.3));
#577 = VECTOR('',#578,1.);
#578 = DIRECTION('',(2.902585186994E-16,1.,0.));
#579 = FACE_BOUND('',#580,.F.);
#580 = EDGE_LOOP('',(#581));
#581 = ORIENTED_EDGE('',*,*,#582,.F.);
#582 = EDGE_CURVE('',#583,#583,#585,.T.);
#583 = VERTEX_POINT('',#584);
#584 = CARTESIAN_POINT('',(3.3,-8.082668874373E-16,20.3));
#585 = CIRCLE('',#586,3.3);
#586 = AXIS2_PLACEMENT_3D('',#587,#588,#589);
#587 = CARTESIAN_POINT('',(0.,0.,20.3));
#588 = DIRECTION('',(0.,0.,1.));
#589 = DIRECTION('',(1.,0.,-0.));
#590 = PLANE('',#591);
#591 = AXIS2_PLACEMENT_3D('',#592,#593,#594);
#592 = CARTESIAN_POINT('',(3.870113582659E-16,0.,20.3));
#593 = DIRECTION('',(0.,0.,1.));
#594 = DIRECTION('',(1.,0.,-0.));
#595 = ADVANCED_FACE('',(#596),#607,.T.);
#596 = FACE_BOUND('',#597,.T.);
#597 = EDGE_LOOP('',(#598,#604,#605,#606));
#598 = ORIENTED_EDGE('',*,*,#599,.T.);
#599 = EDGE_CURVE('',#495,#563,#600,.T.);
#600 = LINE('',#601,#602);
#601 = CARTESIAN_POINT('',(5.3,3.059956426705,14.3));
#602 = VECTOR('',#603,1.);
#603 = DIRECTION('',(0.,0.,1.));
#604 = ORIENTED_EDGE('',*,*,#562,.T.);
#605 = ORIENTED_EDGE('',*,*,#401,.F.);
#606 = ORIENTED_EDGE('',*,*,#494,.F.);
#607 = PLANE('',#608);
#608 = AXIS2_PLACEMENT_3D('',#609,#610,#611);
#609 = CARTESIAN_POINT('',(5.3,3.059956426705,14.3));
#610 = DIRECTION('',(-0.5,-0.866025403784,0.));
#611 = DIRECTION('',(-0.866025403784,0.5,0.));
#612 = ADVANCED_FACE('',(#613),#624,.F.);
#613 = FACE_BOUND('',#614,.F.);
#614 = EDGE_LOOP('',(#615,#621,#622,#623));
#615 = ORIENTED_EDGE('',*,*,#616,.T.);
#616 = EDGE_CURVE('',#583,#478,#617,.T.);
#617 = LINE('',#618,#619);
#618 = CARTESIAN_POINT('',(3.3,-8.082668874373E-16,11.3));
#619 = VECTOR('',#620,1.);
#620 = DIRECTION('',(0.,0.,1.));
#621 = ORIENTED_EDGE('',*,*,#477,.F.);
#622 = ORIENTED_EDGE('',*,*,#616,.F.);
#623 = ORIENTED_EDGE('',*,*,#582,.T.);
#624 = CYLINDRICAL_SURFACE('',#625,3.3);
#625 = AXIS2_PLACEMENT_3D('',#626,#627,#628);
#626 = CARTESIAN_POINT('',(0.,0.,11.3));
#627 = DIRECTION('',(0.,0.,1.));
#628 = DIRECTION('',(1.,0.,-0.));
#629 = ADVANCED_FACE('',(#630),#636,.T.);
#630 = FACE_BOUND('',#631,.T.);
#631 = EDGE_LOOP('',(#632,#633,#634,#635));
#632 = ORIENTED_EDGE('',*,*,#547,.T.);
#633 = ORIENTED_EDGE('',*,*,#574,.T.);
#634 = ORIENTED_EDGE('',*,*,#599,.F.);
#635 = ORIENTED_EDGE('',*,*,#513,.F.);
#636 = PLANE('',#637);
#637 = AXIS2_PLACEMENT_3D('',#638,#639,#640);
#638 = CARTESIAN_POINT('',(5.3,-3.059956426705,14.3));
#639 = DIRECTION('',(-1.,2.902585186994E-16,0.));
#640 = DIRECTION('',(2.902585186994E-16,1.,0.));
#641 = ADVANCED_FACE('',(#642),#661,.F.);
#642 = FACE_BOUND('',#643,.F.);
#643 = EDGE_LOOP('',(#644,#645,#653,#660));
#644 = ORIENTED_EDGE('',*,*,#521,.F.);
#645 = ORIENTED_EDGE('',*,*,#646,.F.);
#646 = EDGE_CURVE('',#647,#522,#649,.T.);
#647 = VERTEX_POINT('',#648);
#648 = CARTESIAN_POINT('',(3.3,-8.082668874373E-16,11.3));
#649 = LINE('',#650,#651);
#650 = CARTESIAN_POINT('',(3.3,-8.082668874373E-16,11.3));
#651 = VECTOR('',#652,1.);
#652 = DIRECTION('',(0.,0.,1.));
#653 = ORIENTED_EDGE('',*,*,#654,.T.);
#654 = EDGE_CURVE('',#647,#647,#655,.T.);
#655 = CIRCLE('',#656,3.3);
#656 = AXIS2_PLACEMENT_3D('',#657,#658,#659);
#657 = CARTESIAN_POINT('',(0.,0.,11.3));
#658 = DIRECTION('',(0.,0.,1.));
#659 = DIRECTION('',(1.,0.,-0.));
#660 = ORIENTED_EDGE('',*,*,#646,.T.);
#661 = CYLINDRICAL_SURFACE('',#662,3.3);
#662 = AXIS2_PLACEMENT_3D('',#663,#664,#665);
#663 = CARTESIAN_POINT('',(0.,0.,11.3));
#664 = DIRECTION('',(0.,0.,1.));
#665 = DIRECTION('',(1.,0.,-0.));
#666 = ADVANCED_FACE('',(#667),#670,.T.);
#667 = FACE_BOUND('',#668,.F.);
#668 = EDGE_LOOP('',(#669));
#669 = ORIENTED_EDGE('',*,*,#654,.F.);
#670 = PLANE('',#671);
#671 = AXIS2_PLACEMENT_3D('',#672,#673,#674);
#672 = CARTESIAN_POINT('',(0.,0.,11.3));
#673 = DIRECTION('',(0.,0.,1.));
#674 = DIRECTION('',(1.,0.,-0.));
#675 = ( GEOMETRIC_REPRESENTATION_CONTEXT(3) 
GLOBAL_UNCERTAINTY_ASSIGNED_CONTEXT((#679)) GLOBAL_UNIT_ASSIGNED_CONTEXT
((#676,#677,#678)) REPRESENTATION_CONTEXT('Context #1',
  '3D Context with UNIT and UNCERTAINTY') );
#676 = ( LENGTH_UNIT() NAMED_UNIT(*) SI_UNIT(.MILLI.,.METRE.) );
#677 = ( NAMED_UNIT(*) PLANE_ANGLE_UNIT() SI_UNIT($,.RADIAN.) );
#678 = ( NAMED_UNIT(*) SI_UNIT($,.STERADIAN.) SOLID_ANGLE_UNIT() );
#679 = UNCERTAINTY_MEASURE_WITH_UNIT(LENGTH_MEASURE(1.E-07),#676,
  'distance_accuracy_value','confusion accuracy');
#680 = PRODUCT_RELATED_PRODUCT_CATEGORY('part',$,(#7));
ENDSEC;
END-ISO-10303-21;
